<?xml version="1.0" encoding="UTF-8" standalone="no"?>
<svg
   xmlns:dc="http://purl.org/dc/elements/1.1/"
   xmlns:cc="http://creativecommons.org/ns#"
   xmlns:rdf="http://www.w3.org/1999/02/22-rdf-syntax-ns#"
   xmlns:svg="http://www.w3.org/2000/svg"
   xmlns="http://www.w3.org/2000/svg"
   xmlns:sodipodi="http://sodipodi.sourceforge.net/DTD/sodipodi-0.dtd"
   xmlns:inkscape="http://www.inkscape.org/namespaces/inkscape"
   version="1.1"
   height="283"
   width="283"
   id="svg13"
   sodipodi:docname="logo.svg"
   inkscape:version="0.92.4 (5da689c313, 2019-01-14)">
  <metadata
     id="metadata17">
    <rdf:RDF>
      <cc:Work
         rdf:about="">
        <dc:format>image/svg+xml</dc:format>
        <dc:type
           rdf:resource="http://purl.org/dc/dcmitype/StillImage" />
      </cc:Work>
    </rdf:RDF>
  </metadata>
  <sodipodi:namedview
     pagecolor="#ffffff"
     bordercolor="#666666"
     borderopacity="1"
     objecttolerance="10"
     gridtolerance="10"
     guidetolerance="10"
     inkscape:pageopacity="0"
     inkscape:pageshadow="2"
     inkscape:window-width="1680"
     inkscape:window-height="987"
     id="namedview15"
     showgrid="false"
     inkscape:zoom="14.089552"
     inkscape:cx="183.9126"
     inkscape:cy="116.93087"
     inkscape:window-x="-8"
     inkscape:window-y="-8"
     inkscape:window-maximized="1"
     inkscape:current-layer="svg13" />
  <defs
     id="SvgjsDefs10308" />
  <g
     id="SvgjsG10309"
     rel="mainfill"
     name="main_text"
     transform="translate(82.74999647140504,-73.23648071289062)"
     fill="#225378">
    <path
       d="m 46.61,240 h 17.7 L 37.61,175.05 H 26.42 L 0.73,240 h 16.79 l 3.58,-9.45 h 21.93 z m -14.5,-39.08 4.95,13.94 0.37,1.1 H 26.79 l 0.55,-1.46 z m 57.268957,17.54075 c 0,0 13.049883,-0.0228 16.330003,-1.56 8.26,-3.95 9.98104,-12.22075 10.16104,-19.93075 0.19,-10.73 -7.25,-21.74 -22.11,-21.74 H 68.81 V 240 H 84.4 V 218.26 Z M 84.4,190.28 h 8.99 c 4.87,0 7.25,3.76 7.16,7.15 -0.09,3.21 -2.57,6.61 -7.16,6.61 H 84.4 Z"
       style="fill:#225378"
       id="path3"
       inkscape:connector-curvature="0"
       sodipodi:nodetypes="ccccccccccccccccccsccccccscscc" />
  </g>
  <g
     id="SvgjsG10310"
     transform="translate(0,0) scale(2.1)"
     rel="mainfill"
     name="outline_container"
     fill="#225378">
    <g
       fill="#225378"
       id="g10">
      <path
         d="M12.8 67.6l-.4.4.4.4 2.4 2.4c1.6 1.6 3.3 3.2 4.7 4.9s3.4 3.3 4.8 5c3.1 2.9 5.9 6.1 9 9l4.2 4.1 10.1 9.3 6.6 6.1c2.6 2.4 5.2 4.3 5.5 3.9s-.2-.8-1.6-2.2-4.8-5-7.3-7.4l-8.3-8.1-6.9-6.6-2.3-2.3c-2.4-2.4-4.9-4.7-7.1-7.2l-.8-.8-3.4-3.3-7.1-7.2.8-.8.5-.5 1.9 2c1.4 1.7 3.4 3.3 4.8 5 3.1 2.9 5.9 6.1 9 9l4.2 4.1 10.1 9.3 6.6 6.1c2.6 2.4 5.2 4.3 5.5 3.9s-.2-.8-1.6-2.2-4.8-5-7.3-7.4l-8.3-8.1-6.8-6.7-2.3-2.3c-2.4-2.4-4.9-4.7-7.1-7.2l-.8-.8-3.5-3.3-2.9-2.9 2.2-2.1 3-2.9 1-1L34.4 49c2.5-2.5 5-4.9 7.4-7.6s3.9-4.1 5.9-6.1l1.7-1.6 5.9-6.1 9.3-9.1 4.8-4.9h.1c2.8 2.9 5.8 5.6 8.6 8.5l.6.6 6 5.8 4.6 4.5 2.9 2.8c1.6 1.6 3.3 3.1 4.8 4.8l2.1 2c1.3 1.5 2.9 3.1 4.4 4.6l2.9 3c2.1 2.2 4.4 4.3 6.5 6.5l.8.8 2.3 2.1c1.1 1.1 2.3 2.4 3.3 3.3h.1l-4.8 4.9-1.6 2a12.2 12.2 0 0 0-1.8 1.6c-1.4 1.6-3 3-4.5 4.5l-.8.8c-1.6 1.8-3.2 3.7-4.2 5.2s-.5.7-.2.7 2.4-1.2 4.7-3.1l2.4-2.2c4.2-3.7 8-7.7 11.8-11.8l1.3-1.4 1-1-1-.9-2.3-2.2-4.9-4.7-4.6-4.4c-1-1-2.2-2.2-3-3.2a45.7 45.7 0 0 0-3.7-3.9l-3.6-3.5c-2-1.9-4.1-3.7-6.1-5.8L92 33.1c-1.8-1.6-3.5-3.3-5.3-5.1l-1.2-1.2a55.2 55.2 0 0 1-5.6-5.7l-2.7-2.9-2.7-2.8-3.4-3.4 2.1-2.1 3.2 3.1.4.4 5.3 5.1c2.8 2.9 5.8 5.6 8.6 8.5l.6.6 6 5.8 4.6 4.5 2.9 2.8c1.6 1.6 3.3 3.1 4.8 4.8l2.1 2c1.3 1.5 2.9 3.1 4.4 4.6l2.9 3c2.1 2.2 4.4 4.3 6.5 6.5l.8.8 1.6 1.4-1.9 2-2 1.7a12.2 12.2 0 0 0-1.8 1.6c-1.4 1.6-3 3-4.5 4.5l-.8.8c-1.6 1.8-3.2 3.7-4.2 5.2s-.5.7-.2.7 2.4-1.2 4.7-3.1l2.4-2.2c3.4-3 6.5-6.2 9.7-9.5l2.4 2.4h.1l-4.8 4.9-1.8 1.6a12.2 12.2 0 0 0-1.8 1.6c-1.4 1.6-3 3-4.5 4.5l-.8.8c-1.6 1.8-3.2 3.7-4.2 5.2s-.5.7-.2.7 2.4-1.2 4.7-3.1l2.4-2.2c4.2-3.7 8-7.7 11.8-11.8l1.3-1.4 1-1-1-.9-2.4-2.3-.8-.8.6-.6 1.3-1.4 1-1-1-.9-2.4-2.3-4.7-4.5-4.6-4.4c-1-1-2.2-2.2-3-3.2a45.2 45.2 0 0 0-3.7-3.9l-3.7-3.5c-2-1.9-4.1-3.7-6.1-5.8l-1.5-1.4c-1.8-1.6-3.5-3.3-5.3-5.1l-1.2-1.2a54.4 54.4 0 0 1-5.6-5.7L88.1 16l-2.7-2.8c-1.8-1.9-3.7-3.9-5.6-5.7l-6.4-6-1.1-1-.5-.5-.5.5a29.1 29.1 0 0 1-2.6 2.4l-2.5 2.9-.8.8-3-2.8-1.1-1.1-.5-.5-.5.5a29.3 29.3 0 0 1-2.6 2.4L55.1 8c-3.2 3.3-6.7 6.6-9.8 10l-.8.8c-1.7 1.7-3.4 3.5-5.2 5.1l-.6.6-4.5 4.6-1.1 1c-1.7 1.4-3.5 3.3-5.3 4.9L18 45l-2.4 2.4-4.5 4.7c-2.6 2.7-5.4 5.3-8 8L.4 62.8l-.4.4.4.4L2.8 66c1.6 1.6 3.3 3.2 4.7 4.9s3.4 3.3 4.8 5c3.1 2.9 5.9 6.1 9 9l4.1 4.1 10.1 9.3 6.6 6.1c2.6 2.4 5.2 4.3 5.5 3.9s-.2-.8-1.6-2.2-4.8-5-7.3-7.4l-8.3-8.1-6.8-6.6-2.3-2.3c-2.4-2.4-4.9-4.7-7.1-7.2l-.8-.8-3.4-3.3-7.1-7.2.8-.8.9-.8 3.3-3.3 3-2.9 1-1L22 44.2c2.5-2.5 5-4.9 7.4-7.6s3.9-4.1 5.9-6.1l1.7-1.6 6-6.1 9.3-9.1 8.5-8.5 3.1 3c-2.5 2.5-5.1 5.1-7.5 7.7l-.8.8c-1.7 1.7-3.4 3.5-5.2 5.1l-.6.6-4.5 4.6-1.1 1c-1.7 1.4-3.5 3.3-5.3 4.9L29 42.7l-2.4 2.4-4.5 4.7c-2.6 2.7-5.4 5.3-8 8l-2.7 2.7-.4.5.4.4 2.4 2.4 1.4 1.4zm59-64.7l3.2 3 .4.4 5.3 5.1c2.8 2.9 5.8 5.6 8.6 8.5l.6.6 6 5.8 4.6 4.5 2.9 2.8c1.6 1.6 3.3 3.1 4.8 4.8l2.1 2c1.3 1.5 2.9 3.1 4.4 4.6l2.9 3c2.1 2.2 4.4 4.3 6.5 6.5l.8.8 2.3 2.1c1.1 1.1 2.3 2.4 3.3 3.3h.1l-1.3 1.3-2.4-2.3-4.6-4.4c-1-1-2.2-2.2-3-3.2a45 45 0 0 0-3.7-3.9l-3.6-3.5c-2-1.9-4.1-3.7-6.1-5.8l-1.5-1.4c-1.8-1.6-3.5-3.3-5.3-5.1l-1.2-1.2a54.7 54.7 0 0 1-5.6-5.7L89.5 23l-2.7-2.8c-1.8-1.9-3.7-3.9-5.6-5.7l-6.4-5.9-1.1-1.1-.5-.5-.5.5a29.2 29.2 0 0 1-2.6 2.4l-.6.6-.8-.8-2-1.9zM14 61l.8-.8.9-.8 3.2-3.4 3-2.9 1-1 10.2-10.2c2.5-2.5 5-4.9 7.4-7.6s3.9-4.1 5.9-6.1l1.7-1.6 5.9-6.1 9.3-9.1 2-2 2.9 2.8-.6.6c-3.2 3.3-6.7 6.6-9.8 10l-.8.8c-1.7 1.7-3.4 3.5-5.2 5.1l-.6.6-4.5 4.7-1.1 1c-1.7 1.4-3.5 3.3-5.3 4.9l-9.9 9.8-2.4 2.5-4.5 4.7-6.8 6.8z"
         fill="#225378"
         style="fill: rgb(34, 83, 120);"
         id="path6" />
      <path
         d="M100.7 102.9c.9-1 2-2.1 2.6-2.9l4.1-5c1.7-2.1 1.8-2.6 1.5-2.9s-2.5 2.1-3.6 3.3c-3.4 3.4-6.8 6.8-10.2 10-1.8 1.7-3.7 3.7-5.5 5.2l-1.5 1.5-1.8 1.9-5.9 5.8c-2.1 2-3.6 3.8-5.2 5.6l-1.7 2a11 11 0 0 0-.5-1.4l-.4-.6a27.4 27.4 0 0 0-3.5-3.5l-1.2-1.2-1.4-1.4 1.1-1 .9-.8 1.6 1.5 1.9 1.6c-.1.5 0 .8 1.1 0s3.5-2.7 5.5-4.6l1.8-1.6c3-3.1 6-6.1 9.1-9l.8-.8c.9-1 1.8-1.8 2.7-2.7s4.3-3.8 6.5-6.1 2-2.1 2.6-2.9l4.1-5c1.7-2.1 1.8-2.6 1.5-2.9s-2.5 2.1-3.6 3.3c-3.4 3.4-6.8 6.8-10.2 10-1.8 1.7-3.7 3.7-5.5 5.3l-1.5 1.5-2 1.9-5.9 5.8c-2.1 2-3.6 3.8-5.2 5.6l-1.7 2a11.4 11.4 0 0 0-.6-1.4l-.4-.6-1.7-1.8c2.9-3 5.8-5.9 8.8-8.7l.8-.8c.9-1 1.8-1.8 2.7-2.7s4.3-3.8 6.5-6.1 2-2.1 2.6-2.9l4.1-5c1.7-2.1 1.8-2.6 1.5-2.9s-2.5 2.1-3.6 3.3c-3.4 3.4-6.8 6.8-10.2 10-1.8 1.7-3.7 3.7-5.5 5.2l-1.5 1.5-1.8 1.9L68 115l-.4-.3-1.2-1.2-2.2-2.2c-.4-.1-1-.5-.9-.2a11.6 11.6 0 0 0 1.6 2.5l2 2.3-2 2.1c-.2-.1-.3-.1-.2.1l-1.9 2.2-1.7 2a11.5 11.5 0 0 0-.6-1.4l-.4-.6a27.3 27.3 0 0 0-3.5-3.5l-1.2-1.2-2.2-2.2c-.4-.1-1-.5-.9-.2a11.7 11.7 0 0 0 1.6 2.5A48.9 48.9 0 0 0 59 121l1.9 1.6c-.1.5 0 .8 1.1 0l3.7-3 .6.9a48.9 48.9 0 0 0 5.1 5.3l1.9 1.6c-.1.5 0 .8 1.1 0s3.5-2.7 5.5-4.6l1.8-1.6c3-3.1 6-6.1 9.1-9l.8-.8c.9-1 1.8-1.8 2.7-2.7s4.2-3.4 6.4-5.8z"
         fill="#225378"
         style="fill: rgb(34, 83, 120);"
         id="path8" />
    </g>
  </g>
</svg>
